<?xml version="1.0" standalone="no"?>
<!DOCTYPE svg PUBLIC "-//W3C//DTD SVG 20010904//EN"
 "http://www.w3.org/TR/2001/REC-SVG-20010904/DTD/svg10.dtd">
<svg version="1.0" xmlns="http://www.w3.org/2000/svg"
 width="225.000000pt" height="225.000000pt" viewBox="0 0 225.000000 225.000000"
 preserveAspectRatio="xMidYMid meet">

<g transform="translate(0.000000,225.000000) scale(0.100000,-0.100000)"
fill="#000000" stroke="none">
<path d="M648 1737 c-262 -144 -487 -271 -499 -282 -73 -66 -77 -208 -8 -281
l20 -22 -31 -44 c-55 -78 -52 -189 7 -259 l26 -30 -21 -22 c-47 -50 -64 -137
-41 -208 14 -41 62 -94 98 -108 21 -9 422 -98 998 -223 l51 -11 452 254 c249
140 454 260 457 267 3 8 -1 20 -9 29 -14 13 -65 -13 -462 -237 l-447 -251 -57
11 c-383 79 -961 213 -982 228 -35 26 -50 59 -50 113 0 54 32 109 71 123 19 6
143 -17 510 -98 266 -59 493 -107 504 -108 16 -1 609 326 871 480 50 29 66 64
32 70 -9 2 -206 -103 -438 -234 -232 -130 -434 -241 -449 -247 -23 -8 -117 9
-522 98 -272 59 -504 112 -517 118 -80 37 -82 193 -3 240 28 17 36 16 282 -38
156 -35 256 -52 262 -46 5 5 7 17 5 27 -3 16 -45 28 -263 76 -143 32 -270 62
-283 67 -58 27 -81 135 -42 199 37 61 21 62 559 -52 272 -59 501 -106 511
-106 13 0 755 411 888 492 32 20 41 41 21 53 -14 9 -45 16 -561 129 -240 53
-442 96 -450 95 -7 0 -228 -118 -490 -262z"/>
<path d="M1680 1210 l-444 -250 -106 23 c-59 13 -112 21 -118 19 -21 -7 -13
-42 12 -52 13 -4 68 -18 123 -30 l100 -21 456 257 c252 141 457 262 457 268 0
12 -20 36 -29 36 -4 0 -206 -113 -451 -250z"/>
<path d="M810 1046 c0 -86 2 -156 5 -156 4 0 20 7 37 16 30 16 31 15 69 -22
l39 -38 0 166 c0 189 10 170 -97 184 l-53 7 0 -157z"/>
</g>
</svg>
